<?xml version="1.0" encoding="utf-8"?>
<!-- Generator: Adobe Illustrator 16.0.0, SVG Export Plug-In . SVG Version: 6.00 Build 0)  -->
<!DOCTYPE svg PUBLIC "-//W3C//DTD SVG 1.1//EN" "http://www.w3.org/Graphics/SVG/1.1/DTD/svg11.dtd">
<svg version="1.1" id="Layer_1" xmlns="http://www.w3.org/2000/svg" xmlns:xlink="http://www.w3.org/1999/xlink" x="0px" y="0px"
	 width="554px" height="182.667px" viewBox="0 0 554 182.667" enable-background="new 0 0 554 182.667" xml:space="preserve">
<path fill-rule="evenodd" clip-rule="evenodd" fill="#E41E2A" d="M42.783,174.925c2.04,1.125,6.792,4.738,9.317,4.791
	c-0.291-1.744-5.182-5.979-7.396-8.791c-8.191-10.395-12.368-17.926-17.1-31.176c-12.158-34.041-3.505-72.176,25.045-93.621
	c34.22-25.702,91.812-26.964,106.615,19.595c3.089,9.718,1.587,19.024-2.302,27.145c-7.206,15.043-17.991,24.383-32.21,32.588
	c-24.012,13.855-44.813,16.098-47.235,17.418c0.424,4.813,10.967,15.885,16.231,19.648c6.687,4.781,16.038,9.195,27.429,7.139
	c20.529-3.705,38.018-26.855,43.28-28.609c3.555-3.26,9.52-3.777,14.981-2.516c3.271-4.24,7.204-18.236,8.457-25.271
	c4.218-23.674-1.154-49.098-14.349-68.645c-11.708-17.345-28.387-30.24-48.5-36.959C106.665,1.52,84.418,1.447,66.105,7.55
	C41.685,15.688,22.59,32.188,11.19,55.043c-3.776,7.572-6.854,15.932-8.445,25.788c-4.472,27.713,2.687,53.042,17.878,73.137
	C27.35,162.867,33.438,167.957,42.783,174.925"/>
<path fill-rule="evenodd" clip-rule="evenodd" fill="#E41E2A" d="M66.037,116.128c17.694-1.545,50.572-13.191,54.462-31.34
	c1.572-7.337-1.42-16.597-6.81-20.936c-12.114-9.756-30.759-2.534-40.378,7.183C63.49,80.958,60.517,99.162,66.037,116.128"/>
<path fill-rule="evenodd" clip-rule="evenodd" fill="#272626" d="M274.229,108.164l11.893-0.02l-0.011-47.686
	c2.073,7.89,4.226,15.911,6.139,23.689c0.994,4.042,4.983,21.721,6.282,23.922l12.107,0.078
	c0.717-4.635,10.957-45.327,12.027-46.958l0.12,46.747l11.845,0.209l-0.021-62.269l-18.941-0.127l-11.031,41.725
	c-1.935-2.469-9.271-37.252-11.663-41.652l-18.792-0.091L274.229,108.164z"/>
<path fill-rule="evenodd" clip-rule="evenodd" fill="#272626" d="M405.163,108.025l12.68,0.141l-0.031-25.801
	c12.038-2.237,15.456,6.51,22.763,17.478c1.689,2.537,3.871,6.158,5.707,8.236l14.87,0.07c-1.116-2.723-11.73-19.012-14.334-21.949
	c-2.523-2.848-5.447-4.366-6.417-5.49c3.781-1.564,11.244-1.918,14.544-10.323c2.833-7.211,0.422-15.837-3.574-19.776
	c-4.384-4.322-12.956-4.885-20.837-4.872c-7.213,0.013-18.723-0.69-25.405,0.147L405.163,108.025z M417.779,72.1l-0.002-15.715
	c11.61,0.025,25.315-2.515,25.371,7.648c0.031,5.672-3.14,7.444-8.43,7.865C429.271,72.332,423.292,72.086,417.779,72.1z"/>
<path fill-rule="evenodd" clip-rule="evenodd" fill="#272626" d="M490.617,45.037c-8.842,1.304-14.721,4.31-19.758,11.621
	c-12.058,17.506-5.946,57.32,30.485,52.218c17.679-2.475,26.649-17.606,24.333-37.74C523.69,53.864,510.206,42.149,490.617,45.037
	 M492.003,55.896c12.597-2.507,19.797,5.827,20.763,17.168C513.828,85.535,510,95.701,499.74,97.95
	C474.279,103.533,471.18,60.041,492.003,55.896z"/>
<polygon fill-rule="evenodd" clip-rule="evenodd" fill="#272626" points="216.296,108.197 263.928,108.148 263.903,97.621 
	229.275,97.588 229.038,80.754 260.239,80.689 260.311,70.053 229.091,70.076 229.083,56.431 262.721,56.404 262.719,45.681 
	216.237,45.737 "/>
<path fill-rule="evenodd" clip-rule="evenodd" fill="#272626" d="M346.954,108.189l12.771-0.053l-0.002-23.462
	c9.203-0.388,19.899,1.222,26.968-3.339c12.644-8.159,11.945-33.808-8.966-35.294c-10.225-0.727-20.599,0.024-30.828-0.361
	L346.954,108.189z M359.695,56.515c7.663-0.728,19.035-1.244,21.525,5.424c1.438,3.85-0.211,8.103-2.342,9.727
	c-3.65,2.781-13.963,2.56-19.213,2.229l0.037-14.953L359.695,56.515z"/>
<path fill="#1B1A19" d="M514.49,138.128v-12.52h2.901v10.164h9.352v2.355H514.49z M493.471,138.128l7.059-12.52h2.799l7.151,12.52
	h-3.258l-1.498-2.742h-7.907l-1.456,2.742H493.471z M499.052,133.128h5.469l-2.696-5.094L499.052,133.128z M486.586,138.128v-12.52
	h2.9v12.52H486.586z M477.283,127.839v10.289h-2.9v-10.289h-5.727v-2.23h14.378v2.23H477.283z M450.458,138.128v-12.52h1.981
	l8.779,7.379c0.298,0.242,0.56,0.473,0.79,0.691c0.229,0.217,0.436,0.441,0.624,0.672c-0.046-0.703-0.077-1.201-0.095-1.492
	c-0.016-0.297-0.024-0.518-0.024-0.676v-6.574h2.61v12.52h-1.98l-9.159-7.738c-0.217-0.197-0.41-0.371-0.574-0.531
	c-0.166-0.16-0.319-0.32-0.459-0.486c0.036,0.389,0.068,0.752,0.089,1.096s0.028,0.643,0.028,0.893v6.768H450.458z M432.242,138.128
	v-12.52H445v2.135h-9.856v2.791h5.749v2.133h-5.749v3.105h9.979v2.355H432.242z M423.496,127.791h-8.168v2.695h7.776
	c1.225,0,2.047,0.209,2.477,0.625c0.431,0.422,0.646,1.197,0.646,2.338v1.723c0,1.131-0.215,1.912-0.646,2.328
	c-0.43,0.418-1.252,0.629-2.477,0.629h-7.703c-1.22,0-2.046-0.211-2.473-0.629c-0.431-0.416-0.646-1.197-0.646-2.328v-0.344
	l2.562-0.535v1.48h8.82v-2.863h-7.78c-1.213,0-2.03-0.209-2.456-0.627c-0.423-0.414-0.638-1.191-0.638-2.328v-1.387
	c0-1.137,0.215-1.912,0.638-2.332c0.426-0.418,1.243-0.627,2.456-0.627h7.079c1.172,0,1.982,0.201,2.423,0.602
	c0.447,0.404,0.671,1.115,0.671,2.143v0.264l-2.562,0.605V127.791z M404.37,127.791h-8.167v2.695h7.776
	c1.224,0,2.046,0.209,2.476,0.625c0.432,0.422,0.645,1.197,0.645,2.338v1.723c0,1.131-0.213,1.912-0.645,2.328
	c-0.43,0.418-1.252,0.629-2.476,0.629h-7.703c-1.221,0-2.047-0.211-2.473-0.629c-0.432-0.416-0.646-1.197-0.646-2.328v-0.344
	l2.561-0.535v1.48h8.819v-2.863h-7.778c-1.214,0-2.032-0.209-2.458-0.627c-0.423-0.414-0.636-1.191-0.636-2.328v-1.387
	c0-1.137,0.213-1.912,0.636-2.332c0.426-0.418,1.244-0.627,2.458-0.627h7.078c1.172,0,1.981,0.201,2.423,0.602
	c0.448,0.404,0.671,1.115,0.671,2.143v0.264l-2.562,0.605V127.791z M375.329,138.128v-12.52h12.759v2.135h-9.858v2.791h5.751v2.133
	h-5.751v3.105h9.979v2.355H375.329z M357.01,127.839h-9.061v7.934h9.061v-2.789h-4.736v-2.135h7.564v4.318
	c0,1.145-0.214,1.924-0.641,2.336c-0.424,0.418-1.244,0.625-2.456,0.625h-8.603c-1.211,0-2.028-0.207-2.453-0.625
	c-0.422-0.412-0.637-1.191-0.637-2.336v-6.6c0-1.137,0.215-1.912,0.637-2.332c0.425-0.418,1.242-0.627,2.453-0.627h8.603
	c1.196,0,2.014,0.205,2.448,0.613c0.432,0.414,0.648,1.154,0.648,2.223v0.289l-2.828,0.514V127.839z M324.289,138.128v-12.52h1.981
	l8.78,7.379c0.297,0.242,0.559,0.473,0.789,0.691c0.229,0.217,0.436,0.441,0.623,0.672c-0.045-0.703-0.076-1.201-0.094-1.492
	c-0.016-0.297-0.024-0.518-0.024-0.676v-6.574h2.61v12.52h-1.98l-9.158-7.738c-0.217-0.197-0.411-0.371-0.575-0.531
	c-0.165-0.16-0.317-0.32-0.459-0.486c0.036,0.389,0.067,0.752,0.089,1.096s0.028,0.643,0.028,0.893v6.768H324.289z M315.037,138.128
	v-12.52h2.901v12.52H315.037z M295.663,138.128v-12.52h10.655c0.996,0,1.717,0.189,2.16,0.574c0.447,0.379,0.667,0.994,0.667,1.848
	v2.943c0,0.846-0.22,1.459-0.667,1.844c-0.443,0.385-1.164,0.578-2.16,0.578h-1.625l5.762,4.732h-4.164l-5.025-4.732h-2.752v4.732
	H295.663z M305.035,127.767h-6.521v3.494h6.521c0.504,0,0.846-0.072,1.03-0.219c0.185-0.148,0.278-0.408,0.278-0.781v-1.506
	c0-0.365-0.094-0.621-0.278-0.771C305.881,127.839,305.539,127.767,305.035,127.767z M278.117,125.609v10.164h8.264v-10.164h2.9
	v9.563c0,1.141-0.215,1.92-0.643,2.332c-0.422,0.418-1.242,0.625-2.46,0.625h-7.87c-1.205,0-2.021-0.207-2.447-0.625
	c-0.431-0.412-0.644-1.191-0.644-2.332v-9.563H278.117z M254.747,138.128v-12.52h8.023c2.292,0,4.052,0.537,5.28,1.607
	c1.233,1.076,1.847,2.602,1.847,4.574c0,1.168-0.241,2.219-0.721,3.158c-0.478,0.936-1.154,1.67-2.029,2.207
	c-0.543,0.342-1.215,0.588-2.02,0.74c-0.81,0.154-1.842,0.232-3.103,0.232H254.747z M257.647,135.773h3.752
	c2,0,3.416-0.311,4.25-0.938c0.833-0.623,1.252-1.652,1.252-3.094c0-1.281-0.346-2.252-1.039-2.91
	c-0.691-0.66-1.714-0.992-3.067-0.992h-5.147V135.773z M233.721,138.128v-12.52h1.983l8.778,7.379
	c0.297,0.242,0.561,0.473,0.79,0.691c0.23,0.217,0.435,0.441,0.625,0.672c-0.045-0.703-0.077-1.201-0.094-1.492
	c-0.016-0.297-0.024-0.518-0.024-0.676v-6.574h2.61v12.52h-1.98l-9.159-7.738c-0.217-0.197-0.411-0.371-0.577-0.531
	c-0.164-0.16-0.318-0.32-0.459-0.486c0.037,0.389,0.068,0.752,0.089,1.096c0.021,0.344,0.028,0.643,0.028,0.893v6.768H233.721z
	 M215.506,138.128v-12.52h12.758v2.135h-9.858v2.791h5.751v2.133h-5.751v3.105h9.98v2.355H215.506z"/>
<line fill="none" stroke="#D8D9D9" stroke-width="6.8424" stroke-miterlimit="22.9256" x1="216.862" y1="116.492" x2="525.413" y2="116.492"/>
<path fill="#1B1A19" d="M538.023,47.535h2.451c1.173,0,1.973-0.174,2.398-0.521c0.426-0.347,0.642-0.81,0.642-1.378
	c0-0.368-0.105-0.699-0.311-0.988c-0.205-0.295-0.489-0.511-0.853-0.652c-0.368-0.143-1.041-0.216-2.029-0.216h-2.299V47.535z
	 M536.004,54.572V42.075h4.303c1.473,0,2.534,0.115,3.191,0.347c0.663,0.231,1.185,0.632,1.578,1.21
	c0.39,0.573,0.584,1.184,0.584,1.83c0,0.91-0.326,1.71-0.983,2.384c-0.652,0.678-1.52,1.057-2.604,1.141
	c0.441,0.185,0.8,0.405,1.063,0.663c0.505,0.489,1.12,1.314,1.852,2.478l1.525,2.445h-2.451l-1.115-1.967
	c-0.873-1.552-1.583-2.525-2.119-2.914c-0.368-0.284-0.905-0.426-1.615-0.421h-1.188v5.302H536.004z M541.111,38.446
	c-1.637,0-3.23,0.42-4.776,1.257c-1.547,0.836-2.757,2.035-3.629,3.593c-0.873,1.557-1.311,3.177-1.311,4.859
	c0,1.678,0.432,3.282,1.289,4.818s2.057,2.735,3.598,3.592c1.541,0.857,3.15,1.289,4.829,1.289c1.672,0,3.281-0.432,4.823-1.289
	c1.54-0.856,2.74-2.056,3.592-3.592c0.853-1.536,1.278-3.141,1.278-4.818c0-1.683-0.437-3.303-1.305-4.859
	c-0.867-1.558-2.078-2.757-3.629-3.593C544.319,38.866,542.73,38.446,541.111,38.446z M541.111,36.521
	c1.951,0,3.854,0.5,5.717,1.505c1.856,0.999,3.308,2.436,4.345,4.297c1.036,1.867,1.557,3.813,1.557,5.833
	c0,2.004-0.51,3.935-1.535,5.78c-1.021,1.852-2.452,3.287-4.298,4.309c-1.847,1.025-3.776,1.535-5.785,1.535
	c-2.016,0-3.945-0.51-5.792-1.535c-1.846-1.021-3.282-2.457-4.308-4.309c-1.025-1.846-1.541-3.776-1.541-5.78
	c0-2.02,0.521-3.966,1.563-5.833c1.046-1.861,2.498-3.298,4.354-4.297C537.25,37.021,539.154,36.521,541.111,36.521z"/>
</svg>
